<?xml version="1.0" standalone="no"?>
<!DOCTYPE svg PUBLIC "-//W3C//DTD SVG 20010904//EN"
 "http://www.w3.org/TR/2001/REC-SVG-20010904/DTD/svg10.dtd">
<svg version="1.0" xmlns="http://www.w3.org/2000/svg"
 width="519.000000pt" height="92.000000pt" viewBox="0 0 519.000000 92.000000"
 preserveAspectRatio="xMidYMid meet">

<g transform="translate(0.000000,92.000000) scale(0.100000,-0.100000)"
fill="#000000" stroke="none">
<path d="M1950 700 l0 -80 -41 0 -40 0 3 -42 c3 -42 4 -43 40 -46 l37 -3 3
-164 c3 -147 5 -166 24 -191 38 -51 70 -68 139 -72 l65 -4 0 51 0 51 -35 0
c-22 0 -43 8 -55 20 -18 18 -20 33 -20 165 l0 145 55 0 55 0 0 45 0 45 -55 0
-55 0 0 80 0 80 -60 0 -60 0 0 -80z"/>
<path d="M232 692 c-66 -24 -114 -69 -144 -136 -33 -75 -33 -228 1 -304 45
-101 152 -160 271 -149 60 5 123 32 152 64 17 18 16 21 -21 57 l-38 37 -38
-25 c-47 -32 -115 -35 -161 -7 -93 57 -97 287 -5 348 48 32 116 31 166 -3 l38
-26 40 41 41 40 -25 20 c-70 58 -184 76 -277 43z"/>
<path d="M778 696 c-115 -41 -168 -133 -168 -290 0 -113 21 -180 74 -232 94
-95 289 -97 395 -4 l25 21 -37 37 -36 36 -29 -21 c-60 -44 -154 -51 -210 -16
-33 20 -62 72 -62 111 l0 32 196 0 197 0 -6 68 c-8 94 -32 155 -78 201 -65 65
-173 88 -261 57z m167 -118 c15 -12 34 -36 41 -54 27 -65 28 -64 -122 -64
l-137 0 6 41 c9 70 47 97 133 98 38 1 58 -5 79 -21z"/>
<path d="M1270 405 l0 -305 60 0 60 0 0 194 c0 107 4 205 9 218 14 36 60 77
96 84 44 8 100 -17 119 -55 13 -24 16 -69 16 -236 l0 -205 60 0 60 0 0 220 c0
244 -5 268 -63 328 -57 59 -175 78 -254 42 -43 -19 -43 -19 -43 0 0 18 -7 20
-60 20 l-60 0 0 -305z"/>
<path d="M2444 694 c-23 -8 -60 -31 -83 -51 l-42 -36 37 -38 37 -38 38 33 c44
41 84 51 138 36 50 -13 71 -42 71 -96 l0 -42 -117 -3 c-104 -4 -123 -7 -157
-28 -91 -57 -102 -208 -21 -280 61 -53 173 -67 254 -31 53 24 51 24 51 0 0
-18 7 -20 55 -20 l55 0 0 228 c0 216 -1 230 -22 272 -48 94 -178 135 -294 94z
m196 -364 c0 -94 -33 -125 -132 -125 -53 0 -62 3 -84 28 -41 48 -28 108 29
132 18 8 67 14 110 15 l77 0 0 -50z"/>
<path d="M2920 523 c0 -214 10 -292 42 -339 49 -72 163 -101 270 -70 68 20 68
20 68 1 0 -12 13 -15 60 -15 l60 0 0 305 0 305 -65 0 -65 0 0 -216 0 -216 -34
-34 c-30 -30 -40 -34 -86 -34 -46 0 -56 4 -86 34 l-34 34 0 216 0 216 -65 0
-65 0 0 -187z"/>
<path d="M3580 405 l0 -305 60 0 60 0 0 195 c0 208 6 241 50 280 29 26 109 28
138 2 19 -17 20 -16 56 27 20 24 36 48 36 53 0 5 -15 18 -32 28 -44 27 -168
28 -215 2 -32 -17 -33 -17 -33 3 0 18 -6 20 -60 20 l-60 0 0 -305z"/>
<path d="M4080 493 c0 -128 5 -234 11 -258 15 -53 73 -110 129 -125 56 -15
155 -8 198 14 31 16 32 16 32 -4 0 -18 6 -20 60 -20 l60 0 0 305 0 305 -60 0
-60 0 0 -201 c0 -222 -7 -257 -61 -284 -37 -20 -109 -19 -138 1 -44 31 -51 68
-51 284 l0 200 -60 0 -60 0 0 -217z"/>
<path d="M4845 695 c-78 -28 -133 -119 -119 -196 18 -91 64 -123 201 -139 94
-10 123 -28 123 -74 0 -82 -153 -113 -247 -49 l-36 25 -35 -36 c-35 -34 -35
-36 -18 -55 41 -46 105 -66 206 -66 83 0 101 3 140 25 76 43 114 129 90 209
-23 80 -65 107 -191 121 -98 11 -129 28 -129 71 0 49 38 79 102 79 30 0 71 -9
94 -19 l42 -19 33 35 34 34 -23 20 c-56 45 -189 62 -267 34z"/>
</g>
</svg>
